<svg aria-hidden="true" style="position:absolute;width:0;height:0" xmlns="http://www.w3.org/2000/svg" overflow="hidden"><defs><symbol id="icon-search-icon" viewBox="0 0 32 32"><path d="M30.786 26.636a2.933 2.933 0 1 1-4.149 4.148l-8.597-8.596a11.663 11.663 0 0 1-5.95 1.634C5.61 23.822.357 18.569.357 12.089S5.61.356 12.09.356s11.733 5.253 11.733 11.733c0 2.174-.603 4.204-1.634 5.95l8.597 8.597zM12.089 3.287c-4.86 0-8.8 3.941-8.8 8.802s3.94 8.8 8.8 8.8c4.86 0 8.8-3.94 8.8-8.8s-3.94-8.802-8.8-8.802z"/></symbol><symbol id="icon-twitter-icon" viewBox="0 0 38 32"><path d="M25.473.874c2.959-.052 4.534 1.025 6.038 2.396 1.277-.109 2.937-.822 3.914-1.319l.95-.519c-.559 1.508-1.315 2.689-2.479 3.587-.259.198-.515.467-.839.593v.019c1.658-.016 3.025-.765 4.324-1.171v.019c-.682 1.084-1.606 2.185-2.591 2.973l-1.193.947c.022 1.756-.026 3.431-.353 4.906-1.908 8.575-6.964 14.396-14.966 16.89-2.874.895-7.517 1.263-10.81.445-1.632-.404-3.107-.863-4.49-1.468-.769-.336-1.482-.7-2.163-1.116l-.671-.407c.742.022 1.612.227 2.441.092.752-.121 1.488-.089 2.182-.24 1.728-.38 3.263-.881 4.583-1.655.641-.375 1.615-.815 2.07-1.356-.858.015-1.636-.185-2.273-.409-2.471-.873-3.91-2.477-4.847-4.887.749.083 2.906.278 3.411-.148-.943-.052-1.849-.598-2.497-1.004-1.988-1.244-3.609-3.329-3.597-6.54l.783.371c.5.211 1.008.323 1.603.447.252.052.755.199 1.044.092h-.038c-.384-.447-1.011-.745-1.398-1.226-1.276-1.584-2.47-4.023-1.715-6.929.192-.737.496-1.388.82-1.988l.038.017c.148.311.48.54.689.8.652.807 1.455 1.533 2.273 2.173 2.79 2.182 5.302 3.523 9.337 4.515 1.024.253 2.207.445 3.43.447-.343-.999-.233-2.618.036-3.585.681-2.435 2.157-4.188 4.324-5.129a9.364 9.364 0 0 1 1.696-.521c.311-.036.621-.074.932-.111z"/></symbol><symbol id="icon-shopping-icon" viewBox="0 0 38 32"><path d="M37.815 7.814h.002l-5.28 11.733c-.26.578-.823.99-1.487 1.035l-15.206 1.013.879 2.509H33.28a3.522 3.522 0 0 1 0 7.042 3.521 3.521 0 0 1-3.52-3.52H13.333a3.521 3.521 0 0 1-3.52 3.52 3.521 3.521 0 0 1 0-7.042h3.181L6.219 4.746H2.187a1.76 1.76 0 0 1 0-3.52h5.28c.768 0 1.414.495 1.655 1.18l.006-.002 1.024 2.929h26.061c.973 0 1.76.787 1.76 1.76 0 .256-.058.499-.158.721zM11.386 8.853l3.253 9.295 15.123-1.009 3.729-8.286H11.385z"/></symbol><symbol id="icon-pinterest-icon" viewBox="0 0 21 26"><path d="M9.051 16.854c-.209.833-.42 1.706-.638 2.56-.215.842-.405 1.696-.718 2.47-.519 1.281-1.178 2.519-2.043 3.521-.575.667-.453.401-.626.365-.132-.028-.143-.157-.169-.345-.141-1.018-.045-2.195.007-3.339.06-1.304.334-2.388.589-3.471.484-2.064.946-4.087 1.435-6.164.032-.138.12-.366.09-.445-.222-.577-.366-1.095-.429-1.701a5.415 5.415 0 0 1 .139-1.943c.277-1.058.913-1.995 1.894-2.338.624-.216 1.315-.118 1.735.132.432.259.729.667.867 1.246.148.615.039 1.351-.08 1.891-.267 1.219-.618 2.134-.937 3.31-.158.583-.337 1.182-.189 1.812.136.578.437.976.847 1.275.426.31.93.479 1.625.455 1.228-.043 2.081-.828 2.651-1.568.913-1.185 1.465-2.784 1.675-4.686.067-.614.117-1.319.07-2.014-.088-1.284-.489-2.317-1.127-3.117-.606-.763-1.466-1.369-2.512-1.711-1.037-.338-2.472-.451-3.747-.233-2.318.397-3.952 1.714-4.915 3.533a7.082 7.082 0 0 0-.837 3.41c0 1.051.259 1.865.678 2.5.133.201.328.367.458.597.185.326-.028.811-.119 1.164-.11.425-.122 1.012-.618 1.022-.206.004-.464-.146-.638-.243-1.305-.721-2.097-2.033-2.422-3.734a8.921 8.921 0 0 1 0-3.238 9.232 9.232 0 0 1 4.396-6.144C6.559 1.023 7.818.56 9.35.337a16.62 16.62 0 0 1 1.605-.132 9.65 9.65 0 0 1 4.326.81 8.839 8.839 0 0 1 2.98 2.146c.838.915 1.448 1.979 1.834 3.309.202.692.398 1.432.398 2.287 0 .858-.181 1.613-.308 2.368-.474 2.828-1.819 5.141-3.838 6.458a6.643 6.643 0 0 1-1.754.809c-.667.194-1.428.34-2.243.283a4.586 4.586 0 0 1-1.983-.577c-.54-.305-.994-.679-1.316-1.244z"/></symbol><symbol id="icon-instagram-icon" viewBox="0 0 32 32"><path d="M27.938 31.754H4.307a3.939 3.939 0 0 1-3.938-3.94V4.184A3.94 3.94 0 0 1 4.307.244h23.631a3.939 3.939 0 0 1 3.938 3.94v23.63a3.94 3.94 0 0 1-3.938 3.94zM16.123 9.894a6.1 6.1 0 0 0-5.536 3.545h-.006c-.01.022-.017.046-.027.068-.058.129-.108.262-.158.395-.023.065-.049.128-.07.192a5.51 5.51 0 0 0-.117.418c-.017.065-.037.13-.052.197a6.11 6.11 0 0 0-.075.453c-.009.062-.021.122-.028.185a6.104 6.104 0 0 0 6.069 6.757 6.104 6.104 0 0 0 6.069-6.757c-.007-.063-.02-.123-.028-.185a6.11 6.11 0 0 0-.075-.453c-.015-.066-.034-.132-.052-.197a4.87 4.87 0 0 0-.117-.418c-.021-.064-.047-.127-.07-.192a6.132 6.132 0 0 0-.158-.395c-.01-.022-.017-.046-.027-.068h-.006a6.1 6.1 0 0 0-5.536-3.545zm12.209-4.529c0-.87-.705-1.574-1.575-1.574h-3.151c-.87 0-1.575.704-1.575 1.574v3.152c0 .87.705 1.575 1.575 1.575h3.151c.87 0 1.575-.705 1.575-1.575V5.365zm0 8.074h-2.905c.224.816.345 1.675.345 2.561 0 5.329-4.32 9.648-9.649 9.648S6.474 21.329 6.474 16c0-.886.121-1.745.345-2.561H3.914v13.194c0 .871.705 1.577 1.575 1.577h21.268c.87 0 1.575-.705 1.575-1.577V13.439z"/></symbol><symbol id="icon-facebook-icon" viewBox="0 0 16 32"><path d="M14.879.245v5.072s-3.738-.373-4.674 1.06c-.512.783-.208 3.077-.254 4.724h4.959c-.418 1.925-.719 3.23-1.028 4.896H9.924v15.759h-6.87V16.059H.131v-4.958h2.891c.148-3.626.203-7.217 2.005-9.046C7.05-.002 8.981.246 14.879.246z"/></symbol></defs></svg>